<?xml version="1.0" encoding="UTF-8"?>
<svg id="Layer_1" data-name="Layer 1" xmlns="http://www.w3.org/2000/svg" viewBox="0 0 792 612">
  <defs>
    <style>
      .cls-1 {
        fill: none;
        stroke: #fff;
        stroke-miterlimit: 10;
      }
    </style>
  </defs>
  <path class="cls-1" d="M350.71,290.67c20.41,6.76,39.28,3.79,60.01,4.01.65,0,1.4-.03,1.8-.54.39-.49.28-1.19.16-1.8-3.24-15.97-7.54-32.13-9.63-48.26,25.34,10.91,49.86,33.38,70.37,51.67,1.29,1.15,2.65,2.45,2.92,4.16.35,2.22-1.25,4.22-2.74,5.9-18.42,20.71-36.84,41.42-55.26,62.12-1.28-12.75-2.57-25.5-3.85-38.24-.14-1.36-.29-2.78-.98-3.96-2.18-3.75-7.73-2.95-11.91-1.77-24.23,6.85-49.6,9.61-74.74,8.13-3.82-.23-8.24-.9-10.17-4.21-1.08-1.84-1.09-4.09-1.08-6.23.18-35.36-2.09-44.91,35.1-30.96Z"/>
</svg>