<?xml version="1.0" encoding="UTF-8"?>
<svg id="Layer_1" data-name="Layer 1" xmlns="http://www.w3.org/2000/svg" viewBox="0 0 523.58 191.66">
  <defs>
    <style>
      .cls-1 {
        fill: #eb292a;
      }

      .cls-1, .cls-2, .cls-3, .cls-4, .cls-5, .cls-6, .cls-7, .cls-8 {
        stroke-width: 0px;
      }

      .cls-9 {
        stroke: #ec2a2c;
      }

      .cls-9, .cls-10 {
        stroke-miterlimit: 10;
      }

      .cls-9, .cls-10, .cls-6 {
        fill: #fff;
      }

      .cls-2 {
        fill: #27ad50;
      }

      .cls-3 {
        fill: #000;
      }

      .cls-4 {
        fill: #24af4c;
      }

      .cls-10 {
        stroke: #a3a3a3;
        stroke-width: 6px;
      }

      .cls-5 {
        fill: #273b94;
      }

      .cls-7 {
        fill: #583c85;
      }

      .cls-8 {
        fill: #f37f1d;
      }
    </style>
  </defs>
  <path class="cls-10" d="M17.59,86.2c-.04-.18-.09-.36-.14-.54-1.13-4.08-1.97-8.28-2.94-12.4-1.53-6.49-3.06-12.97-4.58-19.46l-4.26-18.1-1.88-7.99S-1.06,12,13.44,7.4c7.02-2.22,14.49-3.08,21.81-3.67,3.26-.26,6.53-.44,9.8-.56,2.09-.07,4.28-.27,6.37-.11,1.28.1,2.39.31,3.48,1.04.94.64,1.79,1.43,2.83,1.89,1.68.74,3.23.21,4.92-.11s3.29-.59,4.95-.81c3.28-.43,6.88-.87,10.14-.08,6.04,1.45,16.44,1.45,25.14,16.44s14.26,37.71,12.81,52.94c0,0,15.95-3.87,24.17.48,0,0,3.38-10.88,21.76-8.94,0,0,16.44-4.11,24.9,3.87l11.36.24s1.69-21.51,14.75-23.21,39.16-5.56,46.17,32.88c0,0,11.84-.97,20.06,6.53,0,0,9.67-20.19,28.77-24.72s43.18-.18,53.26,23.51c0,0,29.66-4.35,43.92,4.83,0,0-5.08-26.35,6.77-38.43,11.84-12.09,33.6-16.2,43.99,7.98,0,0,4.83,9.91,3.14,21.03,0,0,25.62-1.45,27.8,7.01,0,0,22.48-.97,30.46,20.79,7.98,21.76,2.28,70.34-12.27,75.18-14.56,4.83-25.19,12.55-42.84-10.04,0,0-7.49-.84-11.36-2.29,0,0-11.21,12.63-32.66-3.14l-11.33-2.66s-51.73,22.24-71.07-19.82l-12.81-.24s3.14,26.35-31.18,18.13c0,0-17.16,25.86-43.51,20.31,0,0-34.81,18.37-33.6-20.55,0,0-12.81,13.3-30.7,6.04-.58-.27-1.15-.56-1.72-.86-2.6-1.38-5.13-2.96-7.38-4.88-1.22-1.04-2.39-2.2-3.29-3.54-.4-.6-.51-1.57-1.14-1.92s-1.54-.18-2.23-.1c-1.41.17-2.82.29-4.23.38-1.43.09-2.59.56-3.9-.13-1.46-.77-2.91-1.75-4.59-1.95-.79-.1-1.65.19-2.15.81-.84,1.03-.74,2.48-1.11,3.68-.25.83-.92,1.73-1.34,2.49-.98,1.79-2.07,3.52-3.25,5.19-2.29,3.23-4.97,6.19-8.06,8.68-7.16,5.78-16.15,8.18-25.26,6.89-29.01-4.11-34.81-34.08-36.74-43.03l-3.87-.24s9.19,42.3-3.87,43.27c0,0-19.58,12.09-29.49-4.11l-11.12-44.48s-13.54-.59-15.47-16.25c0,0-7.74-21.46.48-27.02,1.37-.93,3.42-2.27,3.78-4.02.12-.59.03-1.19-.12-1.78Z"/>
  <path class="cls-4" d="M47.85,18.75l-29.27,3.98,18.43,78.06h-11.2l3.61,17.71h10.84l13.01,52.4h7.59l-4.34-44.45,22.77-2.17v-27.83s-25.3,2.61-25.3,2.61c-.98-5.66-1.73-11.38-2.32-17.1-.88-8.59-2.95-20.65,1.55-28.52.49-.86,1.12-1.72,2.06-2.02,1.34-.42,2.72.46,3.73,1.43,1.11,1.06,2.07,2.31,2.58,3.76.51,1.46.52,3.03.61,4.57.62,11.46,5.47,27.42,19.97,24.78,19.88-3.61,16.99-25.66,16.99-25.66,0,0-1.45-37.22-26.38-39.39,0,0-12.65-2.17-23.49,17.35l-1.45-19.52Z"/>
  <path class="cls-7" d="M91.9,111.34h5.31s0,29.6,9.87,33.65c12.35,5.07,8.24-35.44,8-40.73-.15-3.35-.43-6.99,1.55-9.83,1.84-2.63,4.86-4.95,8.02-5.72,2.02-.49,4.08-.26,6,.52,3.82,1.55,6.65,3.85,7.75,7.88,3.07,11.29,5.21,23.09,5.05,34.83-.13,9.6-1.84,20.48-9.04,27.48-4.41,4.29-10.02,7.92-16.37,7.98s-12.33-4.01-16.35-8.71c-5.24-6.14-8.22-13.54-9.29-21.44-.37-2.69-1.61-25.9-.5-25.9Z"/>
  <path class="cls-8" d="M153.74,81.84h21.54l-1.21,12.99s10.01-14.35,24.58-6.39c7.23,3.95,9.78,13.53,10.82,21.05.89,6.45.8,13.01.27,19.48-.66,7.98-1.68,16.08-6.85,22.54-1.28,1.6-2.82,3.08-4.74,3.8-2.4.9-5.15.5-7.46-.61-2.88-1.39-6.13-3.89-6.9-7.14-.61-2.58.32-5.41.47-8.01.18-3.09.22-6.19.12-9.28-.19-6.09-.97-12.17-2.45-18.09-1.4-4.91-8.32-4.57-9.78.23-.29.96-.27,1.98-.25,2.98.17,8.33.26,16.67.34,25l-10.01,1.52-8.5-60.08Z"/>
  <path class="cls-1" d="M211.37,86.27s4.88-24.61,4.88-24.61c6.22-.69,13.54-.36,18.67,3.65,6.4,5.01,8.06,12.36,8.34,20.08.07,1.9.06,3.8,0,5.7-.04,1.37-1.02,5.39-.4,6.49,3.16,5.56,7.39.93,10.88-1.12,2.34-1.38,5.28-1.44,7.91-.77,9.2,2.35,15.09,9.64,17.78,18.44,4.47,14.63,5.27,33.16-5.76,45.09-13.52,14.63-30.59,8.65-34.36,1.11l-2.66,13.08-6.87-1.33.22-63.41s1.77-25.5-18.62-22.39Z"/>
  <path class="cls-9" d="M252.17,111.77s-7.32-6.83-9.98,5.68c-1.4,6.56-1.49,13.44-1.11,20.11.35,6.23.78,12.83,5.93,17.11.69.57,1.49,1.1,2.39,1.1.92,0,1.75-.56,2.39-1.22,2.88-2.95,3.65-8.08,4.37-11.97,0,0,3.77-20.4-3.99-30.82Z"/>
  <path class="cls-2" d="M307.48,148.51s-8.71,0-8.71,0c-.98-5.77-1.87-11.57-2.71-17.36-.73-5.01-1.4-10.03-1.99-15.06-.65-5.59-1.6-11.44-1.36-17.07.28-6.8,3.2-11.7,8.35-15.97,4.47-3.7,9.35-6.34,15.18-6.96,4.08-.43,8.15.38,12.1,1.31,2.26.54,4.26.83,6.37,1.92,4.51,2.33,7.77,6.36,10.06,10.81,1.09,2.11,1.98,4.32,2.74,6.57,0,0,5.89,17.43-10.83,29.91-6.83,5.1-16.24,4.51-22.22-1.72-2.01-2.09-3.32-5-2.92-7.87.38-2.69,2.16-4.89,4.1-6.67,1.8-1.66,3.02-3.23,3.68-5.67.48-1.78.63-3.86-.18-5.57-.87-1.85-2.29-2.14-4.12-2.4,0,0-11.54-1.64-11.31,15.43.24,17.07,3.77,36.38,3.77,36.38Z"/>
  <path class="cls-2" d="M367.79,99.07s2.36,6.73,2.36,6.73h6.12c2.88,0,6.59-.72,8.87,1.35.37.34.73.72.94,1.18.89,1.95-1.77,3.42-3.32,3.72-.51.1-1.04.07-1.56.06-9.21-.26-19.96,2.24-26.25,9.41,0,0-15.19,16.76,4.71,29.6,5.81,3.75,13.74,4.83,20.47,4.56,3.75-.15,7.47-.76,11.08-1.77,3.21-.9,6.8-1.94,9.53-3.9,1.21-.87,2.24-1.97,3.22-3.09.33-.38,1.72-2.27,2.32-2.08,0,0,2.94.95,3.21,6.17,0,0,8.32.12,8.32.12-.96-7.5-2.2-14.99-3.81-22.38-1.06-4.89-1.92-11.08-4.97-15.19-2.86-3.86-5.37-7.37-9.73-9.69-4.11-2.19-8.71-3.37-13.28-4.1-2.75-.44-5.54-.68-8.32-.79-.97-.04-9.84.37-9.93.11Z"/>
  <path class="cls-6" d="M370.41,119.69s-.08.02-.12.02c-4.38.92-11.04,4.6-9.05,10.18,1.6,4.48,10.25,3.96,13.86,3.9,5.84-.1,14.77.22,19.8-2.88,1.71-1.05,5.18-4.06,5.29-6.33.16-3.44-5.07-5.18-7.78-5.43-7.31-.67-14.77-.97-22.01.54Z"/>
  <polygon class="cls-8" points="436.13 102.68 438.2 159.64 430.72 159.64 427.37 102.68 436.13 102.68"/>
  <path class="cls-8" d="M432.78,57.06s10.57,4.12,10.05,21.39c0,0,.26,20.1-15.46,15.98,0,0-13.4-13.4-4.9-31.19,0,0,4.12-7.73,10.31-6.19Z"/>
  <path class="cls-5" d="M453.64,96.21h20.2c-.5,0-1.55,12.61-1.66,13.59-.02.14-.03.3.06.41.16.22.5.12.74,0,3.01-1.49,5.33-4.01,8.22-5.7s6.17-1.93,9.46-.87c4.66,1.49,8.7,4.84,11.03,9.15,3.29,6.07,2.71,12.66,2.82,19.29.12,7.24.21,14.49-1.1,21.67-1.06,5.81-3.23,14.27-8.85,17.47-7.05,4.02-15.22,2.1-18.19-5.84-1.18-3.17-.18-5.85.29-8.98.4-2.65,1.02-5.26,1.38-7.91.92-6.76,1.45-13.96-.51-20.6-.28-.94-.63-1.9-1.35-2.56-1-.92-2.56-1.04-3.84-.56s-2.29,1.48-3.08,2.59c-2.71,3.79-3.38,8.93-3.87,13.46-.16,1.45-.62,14.89-.49,14.87l-8.94,1.12-2.32-60.61Z"/>
  <path class="cls-3" d="M101.82,14.01s15.67,4.75,23.57,55.62l-6.93,1.16s3.64-26.65-16.64-56.78Z"/>
  <path class="cls-3" d="M252.54,55.66s6.45,9.11,8.74,21.05l5.33.46s-3.53-16.04-14.07-21.51Z"/>
  <path class="cls-3" d="M452.97,49.13s8.4,9.24,9.23,28.14h5.96s-1.76-21.82-15.19-28.14Z"/>
</svg>